/* XPM */
static char *_9fe1780ad984178f7e5d60c0aebd2ee7f05w3xL86RNVKCZ[] = {
/* columns rows colors chars-per-pixel */
"64 64 221 2 ",
"   c #22260D",
".  c #262E0D",
"X  c #2A2E0D",
"o  c #2A350D",
"O  c #2E3216",
"+  c #2E3816",
"@  c #323A16",
"#  c #3A3B16",
"$  c #303419",
"%  c #353D1C",
"&  c #3A3D1B",
"*  c #35421C",
"=  c #3B431C",
"-  c #3C4721",
";  c #3D4B22",
":  c #40421C",
">  c #4C4C1B",
",  c #675A1C",
"<  c #7A5E16",
"1  c #404722",
"2  c #494722",
"3  c #454D26",
"4  c #42482B",
"5  c #4F4D2A",
"6  c #514F23",
"7  c #465028",
"8  c #49532A",
"9  c #51562E",
"0  c #4E5530",
"q  c #545A37",
"w  c #585C35",
"e  c #59623A",
"r  c #7B662F",
"t  c #63653D",
"y  c #595F40",
"u  c #686C48",
"i  c #7A7549",
"p  c #6D7253",
"a  c #777958",
"s  c #AA770D",
"d  c #8E752F",
"f  c #B2890F",
"g  c #B89223",
"h  c #B99832",
"j  c #C2860D",
"k  c #C88A16",
"l  c #C9951B",
"z  c #D1901B",
"x  c #C89626",
"c  c #D49F24",
"v  c #D69C37",
"b  c #CDA936",
"n  c #D7A738",
"m  c #CEB03F",
"M  c #DCB33B",
"N  c #E0A629",
"B  c #E6AB35",
"V  c #F1AD39",
"C  c #ECB636",
"Z  c #ECBB36",
"A  c #E1B339",
"S  c #ECB439",
"D  c #E4BC3E",
"F  c #ECBC3C",
"G  c #F4BB35",
"H  c #FBBD34",
"J  c #F5B53E",
"K  c #F4BD3B",
"L  c #FBBD3B",
"P  c #DDC33C",
"I  c #EBC23A",
"U  c #ECC33B",
"Y  c #EDC83E",
"T  c #F4C334",
"R  c #F9C136",
"E  c #F3C33C",
"W  c #FAC23D",
"Q  c #F4CA3C",
"!  c #848154",
"~  c #B1984D",
"^  c #BCA64E",
"/  c #848863",
"(  c #959667",
")  c #858A72",
"_  c #949A79",
"`  c #B59E66",
"'  c #9DA37A",
"]  c #A8A36A",
"[  c #A6A476",
"{  c #AEAA72",
"}  c #B9B67A",
"|  c #C7AA45",
" . c #D4A341",
".. c #D3B142",
"X. c #DAB949",
"o. c #CFB251",
"O. c #DBBB54",
"+. c #E5BC43",
"@. c #ECBD43",
"#. c #EABA47",
"$. c #E2BC4B",
"%. c #F4BE43",
"&. c #F9BE42",
"*. c #EBBE53",
"=. c #F7BC52",
"-. c #F3BE5C",
";. c #CCAB60",
":. c #C3B76C",
">. c #CABD6A",
",. c #D5B766",
"<. c #DEC65A",
"1. c #E7C243",
"2. c #ECC343",
"3. c #EBCB42",
"4. c #E5C54D",
"5. c #ECC24B",
"6. c #EDCC4B",
"7. c #F3C244",
"8. c #FBC344",
"9. c #F2C944",
"0. c #FCCB46",
"q. c #F3C54A",
"w. c #FBC449",
"e. c #F3C94C",
"r. c #FDCA4C",
"t. c #E7D54C",
"y. c #F5D74C",
"u. c #EAC656",
"i. c #E5C85A",
"p. c #EECD5D",
"a. c #F3CB53",
"s. c #FECE53",
"d. c #F1CE5C",
"f. c #F9CA59",
"g. c #F4D352",
"h. c #FDD354",
"j. c #F4DA53",
"k. c #FCDB55",
"l. c #F7D058",
"z. c #FCD45B",
"x. c #F7DB5C",
"c. c #FDDB5D",
"v. c #F1E05D",
"b. c #FBE35B",
"n. c #D7C96A",
"m. c #D7C879",
"M. c #E5CA67",
"N. c #F7CA68",
"B. c #EDD365",
"V. c #E5D46E",
"C. c #EAD46A",
"Z. c #EEDD6A",
"A. c #F4D363",
"S. c #FDD463",
"D. c #F4DC62",
"F. c #FEDC63",
"G. c #F2D56B",
"H. c #FDD769",
"J. c #F3DB6B",
"K. c #FDDC6B",
"L. c #E6CE72",
"P. c #F0CF71",
"I. c #EAD875",
"U. c #E3D279",
"Y. c #ECDB79",
"T. c #F3D473",
"R. c #F6D676",
"E. c #F5DC73",
"W. c #FDDD73",
"Q. c #F3D379",
"!. c #FEDE7B",
"~. c #FEE265",
"^. c #F2E16A",
"/. c #FEE26B",
"(. c #FFE96B",
"). c #FEE373",
"_. c #FFEA75",
"`. c #F6E27B",
"'. c #FEE47A",
"]. c #FFEB7C",
"[. c #FEF17D",
"{. c #9EA182",
"}. c #A6A686",
"|. c #AFB38C",
" X c #B1B382",
".X c #BDB584",
"XX c #BABB99",
"oX c #C9C389",
"OX c #D5C988",
"+X c #D9D38B",
"@X c #DCD193",
"#X c #E7D986",
"$X c #E5DB8B",
"%X c #FFDE82",
"&X c #F6DE88",
"*X c #E6DC9A",
"=X c #F9D899",
"-X c #EAE389",
";X c #FEE283",
":X c #FEEC83",
">X c #FDE088",
",X c #FFF286",
"<X c #FFF38B",
"1X c #FFEC93",
"2X c #F6E99E",
"3X c #FEF397",
"4X c #CCCFB4",
"5X c #F4DBA4",
"6X c #E9ECA7",
"7X c #FFE2A7",
"8X c #FDECA2",
"9X c #F5E3AB",
"0X c #FFF5A4",
"qX c #EAEDBF",
"wX c #FEF8B3",
"eX c #FEFCBC",
"rX c #E4E5CA",
"tX c #FBF6C6",
"yX c #FFFED4",
"uX c #F5F6D8",
"iX c #FDFDDF",
/* pixels */
"1 + * ; * ; ; = * * * = * + - t w $ # : = 3 = @ ; ; = = 2 7 & : = = 3 8 * * & . o = * * o * * ; = : + O # # $ 3 = @ = 7 o 3 = O ",
"1 . @ 3 = 7 3 8 = = 3 % o . # t w : : 3 = 3 9 ; * 3 7 * 7 = = 1 : @ * = * @ = = @ = 7 * * * + ; = 2 2 X O : = 3 8 9 @ + o 7 : X ",
"= . o ; = @ # 9 = @ > & = . * # 7 = 1 3 ; 3 . @ ; = ; * 7 1 9 8 9 - + @ * @ + * * ; 8 = > ; o @ @ = t 2 2 5 3 ; ; * * @ @ 1 8 @ ",
": @ . @ = . O # o o o + * . * = 8 3 3 : # # X # * * = o 7 5 2 w w 3 @ # = # 3 = 1 = 3 @ ; = * @ % 3 9 : : 8 1 o * o o @ $ & 7 % ",
"@ . o + 8 * + = @ = ; = * o @ = 9 ; 1 = 2 : # 8 9 7 = + 1 9 2 9 3 # 3 3 = & = 1 @ = 7 = & = : * $ = : # 1 8 = + ; $ X @ = * 1 + ",
"+ @ + o ; = @ * = * = = o   o * 7 = 3 7 = : 3 3 ; * & @ o = = 2 = % - 3 : = @ o + * o * + * * & $ 1 # # @ # o + = O % X . & 1 @ ",
"+ . + = ; ; * + = = = 1 %   + + = 8 = = 7 2 8 8 ; @ = 7 : = 1 3 1 1 = - @ 1 1 + + o . + * 7 * o X : : :   X @ @ 3 = O     O 1 1 ",
"o   @ 8 = * + = ; * = 3 5 o @ = 3 & o : w 8 3 = = # : : w 7 1 & % 1 % % = 3 = = 9 * + + + = = : X @ 1 #   X % = 8 - # X   O : 7 ",
"* 3 2 3 # +   @ 3 * 1 7 1 # . 1 8 # # 3 8 = 3 ; 1 : = = 3 3 % o &   O 1 - = $ = = o = * ; = 8 t : X # 1   & = : 3 & # 3 : & X : ",
"1 3 2 2 # : . . & @ : 8 2 # # $ = = 1 # = & = # # : & & % ; 3 = 9 @ $ % = = = 3 % $ * * * % 5 t 9 # # t = @ = X # @ : 9 w 5 & 2 ",
"# O : : 2 w & O O @ = w 1 1 3 O + ; = = @ + . . % 1 *   @ 8 ; * 3 1 @ @ + o = # O @ * * X $ 2 2 w w : : 1 @ 7 # 2 # # 5 9 9 : = ",
"X X : 5 w t 1 1 # @ = 2 = 1 2 # . = = 3 &   . % % = & & _ rXuXiXuXrX4X}.a u 0 3 = * 7 *   1 w 2 : 2 $ @ * = 2 = 1 . . # 1 = $ = ",
"% # # - 9 9 1 : o . + & % # # @   X O & : & + . @ ) 4XuXtXeXwXwX8X2X5X=X5X.Xi q 8 7 3 %   5 5 9 : @ @ o o ; * o # O & + $ + # : ",
"= & 3 2 # : = 7 # O o = 8 # $ # = @ $ X # 1 3 XXuXeX9X*X$X#XI.Y.T.R.P.Q.L.;.;.` u ; - $   X 5 5 # & * @ * = ; * O 3 = @ & * @ : ",
"= @ = @ X # : 8 = 1 * % 3 = # : 8 * & % $ _ qXeX1X`.P.G.J.Z.J.J.J.J.W.'.R.%XQ.n.~ r a 5 1 2 2 5 # * * * ; * * * @ 3 7 # o = & X ",
"1 $ = 1 1 7 = = @ # = o & 3 1 8 w ; ; 8 {.tX6X-XD.F.F.~.x.z.z.k.h.z.F./.).).'.:X!.$.d i : w 2 5 # + * + * + = = @ o # % o O = % ",
"3 @ X . O @ # o o 1 8 O 1 1 = & - ; 3 |.tX$X-XV.J.).F.1.2.7.E G H R 8.e.l.K.K.E.&X1XN.r 7 7 : 2 @ + * + @ @ = * + = 3 = # o & 1 ",
"@ o @ % & O O @ 1 : 8 3 1 @ O O O @ |.eX>XY.I.;XM.m b 1.2.K H H H R W r.z.a.d.!.1X1XR.A.> # 2 w 1 3 3 @ . o * ; 3 $ @ = 7 X & + ",
"$ O O - 3 + + 3 9 o % 3 7 = $ . = p 9X>X:XT.0X-Xh m +.q.@.E K K G K 8.r.h.5.u.J.>X;X/.~.d., = : = ; 8 =   . & 1 = O o X : = % @ ",
"= @ @ & = @ # 8 9 = = & = 1 7 & q XXOXT.A.H.L.o.u.a.6.5.@.7.7.F @.E 8.q.q.a.g.u.<.K.(.t.c.d., 3 3 2 7 ;   O = * @ & % * X = o + ",
"= * @ & # 2 # # = 3 7 + @ $ 8 8 ' +XY.'.(.M g $.+.F F D D #.e.F.s.+.S.5.7.s.@.s.e.6.x.b.j.~.B 6 8 9 & 1 $ @ % & & : 1 - . * * * ",
"= = @ = : 2 O O o = 3 % . . # p *XU.&X3XR.g #.7.Z K 2.7.5.a.F.).J.M u.a.q.r.w.r.e.Q Y j.b.z.S.v 6 1 8 9 : # # = 5 = = % + = ; + ",
"# > 1 1 2 5 : $ o = = ; * o o p >.&X9XyXtX=X=.8.G K r.h.F.K.).'.).i.p./.e.7.0.0.R T I Y S.K.!.N.s & 5 t : 5 w % 8 w w ; o * 8 3 ",
"2 = 1 5 w w 7 1 * = ; = * @ & }.,.R.7XiXyX=X=.L G W h.c._.].).].:X:X_._.z.E r.W R R F D #.'.W.W.x 6 2 5 : 5 5 # + 1 w 3 * ; w t ",
"2 w 5 9 t 2 $ + o @ * = * = a OXM.S.-.-.!.u.+.Z K 8.(.c./.d.).,X`.<.[.)._.7.G L &.8.8.w.a.c.F.F.V < 2 w 5 6 # @ $ = ; @ * = = t ",
"2 2 7 5 5 1 & @ + + + 7 + 0 _ m.G.~.B z e.+.A D 7.r.(.c._.O.E.`.C.X.].].(.e.S 8.&.w.w.w.e.g.k.c.W s # 5 t w : : = 7 * + + * = 7 ",
"# o = 3 % # = * * * . = @ = [ m.J.F.z k q.+.D 2.7.r.(.F._.X.J.`.C.O./.K.F.e.S 8.&.w.w.w.q.6.g.k.r.x : 5 w w = : 7 = * * = * * * ",
"2 : = 3 3 . . @ * 8 = = % &  XU.(.z.j V r.6.3.7.7.r.(.F.(.i.M.'.].X.B.4.h.q.%.8.w.8.w.q.7.3.g.g.~.v 7 = 3 2 o = : @ = 7 * = 8 * ",
"3 = % 3 9 # % * o 9 w = 3 8 +XY.^.h.k J &.e.6.7.7.w.F.K.).].:X'.E.i.B.$.5.@.8.w.w.8.w.q.1.1.x.x.S.n - * = 7 ; = = = ; = * * e 7 ",
"3 9 # : 5 2 = % * = = # = w +XZ.D.h.j J =.e.9.q.7.q.s.F.).).:X,XE.,XK.K.e.@.w.r.8.&.&.q.@.U c.F.K. .@ $ + * * * = . + = = o 7 = ",
"3 w $ X # 5 3 9 7 ; @ * & e +XZ.D.h.f J 7.q.q.q.8.7.q.F.S.W.].:X).<X)./.K.7.K r.8.8.8.7.2.1.c.~.W. .* + * + + + * . . % = = : # ",
"3 w # # 5 3 o @ = = = ; @ q +X^.D.h.j G w.w.q.q.7.w.q.z.d.G.E.].'.B.W.K.].z.S &.W W L 7.7.7.c./.K. .% o + o o 7 ; + .   O @ * * ",
"+ 3 8 3 = # + + * ; 3 @ o 8 } V.k.y.s N &.r.r.&.8.s.z.F.A.i.G.:X'.b %X>X;X-.S W R R H H &.q.D.~.K.v - O   . @ 7 9 =     O @ = & ",
"o + 3 5 o . * @ + ; = o . + ( U.c.k.l c S.w.&.&.r.c./._.]...B.].`.o.%X&X%X-.B W R R L L %.e.F.F.z.< 3 3 .   * = 3 $ . $ # = @ - ",
"    @ # X   + = * 9 ; = o o u $XJ.F.+.l l.&.&.w.r.S.(.).,XX.G.'.E.*.%X%X!.5.B E E K &.%.%.e.F./.7.o 3 q 1 O * @ 3 O @ * X 3 X @ ",
"+ o O @ O # @ + = 8 o o 1 3 t oXL./.S.g B r.k.r.8.k.F./.).W.).'.J.B.`.'.'.7.C 8.U 2.*.*.5.d.x./.h # @ $ * = % o * @ & 3 $ 3 = + ",
"; = @ @ = w = X % 8 7 # 9 w 7 ( :.:X,X..l s.7.h.h.h.z./.'.'.'.'.:X].[.~.e.K K E Y 4.C.Q.i.x.h.z.w 1 $ % @ = . . = 1 : : $ # = . ",
"3 q 3 O . O @ = = w 9 & X & & e oX&X;XG.g M k.0.L 7.&.f.z.H.).!.J.p.h.9.E G W E 1.v.eX0X).c.~...8 = @ * * o   O & 1 * X . @ : X ",
"3 = 8 1   o @ t 5 9 7 * O # # $ ( OX#X<Xp.f 9.0.C %.#.#.u.N.E.).G.$.U I T T K 2.P [.eXtX:X~.c.X 8 1 o + * * @ . * 1 3 $ o $ # # ",
"= $ # 1 # & 8 8 5 @ @ ; = # O . t oX$X:X].+.f C Z K w.e.l.S.H.W.H.+.I Q T T K K 6.<.0X8XE.v.> o @ # X % @ * +   % ; & # 1 3 5 : ",
": : $ X # = = = - o o = @ : : # 3 a 2X:X[.~.M l C W 8.r.s.s.w.7.%.7.E Q T E Z C C e.W.W.K.| $ % # # o @ % @ + o % * @ @ 3 9 = : ",
"= # : X # & * 1 O @ * 3 ; = w 3 # 8  X3XV.(.H.#.k N K w.w.w.7.7.E E E E U T Z E h.h.z.K.p.> % @ 3 - o o ; * @ = = o % 8 8 3 O : ",
"# # : X 5 : * = : & * ; + . * O # & q [ +XM.K.F.f.A v @.@.F %.2.E Q Q U Q Q Q y.r.h.F.S., $ @ @ 1 # . o + @ & = : . o & 1 3 # O ",
"5 : 2 : 5 O O : 5 O o * + . + * = @ . y .X#Xn.B.).'.z...M M U 2.3.Y Y Y Q y.k.c.c.).*.> % % X # - & . * @ % : : # @ . O X & 1 : ",
"3 : > = = # X 5 : o $ ; : * * = * & o 1 u / @Xm.E.)._./.j.y.y.y.j.j.g.c.c.c.x.c.).g # . * + . O O $ + ; 3 @ @ 9 2 3 @ o @ 1 3 9 ",
"2 : 1 # # 8 # : 5 # 1 9 8 = = * * 3 7 8 3 & p  X:.} n.V.^.v.v.v.D.D.J.G.Z.).D.^ 9   @ @ = * O *   $ * = * 3 : 5 = * * O $ 3 9 9 ",
"1 @ o + @ 1 # : 2 2 9 3 = * @ @ = = = 3 9 1 2 4 p  X] ] } n.n.n.n.n.>.:.~ ! d i 3 % ; ; 7 3 * O $ : @ 3 3 + ; 3 = @ @ X & 1 1 # ",
"= & o o X @ # $ X : 2 : # o + . o @ $ : % X 1 1 . q u / ] ] { { [ ( ( ( ! u 9 # O . ; ; 8 w 8 = : 7 = = 9 @ = o O o & $ O : 7 # ",
"# & o @ o * : # # # # X . O @ + = & . = =   @ X @ O # 3 7 @ & 1 = @ * + ; 3 O @ @ + * = ; 3 : : & = * * 9 O X X   . o = 1 @ & # ",
"1 = ; = = = O @ 2 : 5 X . o @ + @ & X   X X # . # 3 # = 8 7 8 o o o * + @ @ . O * * + * ; * 3 # @ + = # 9 =   # O   . % & - X X ",
"= 1 = = ; * & X # 2 w # - & * .   @ : # X 1 1 $ O # $ $ # = 3 # = & . + * = & % : * * * + @ 7 : * * = 9 5 2 : = 3 o . = O : 1 @ ",
"@ 7 7 t ; & % o $ : 5 # O X @ O X X 1 1 # 8 9 X X X : =   @ $ O : = * * @ 7 3 * @ * = * @ # 7 # * * : t : : : & % O   w O O 1 # ",
"$ = t t # & & + @ $ : # # O X 2 5 # = 7 = 3 & $ X : w 1 o # & O # # : 7 * @ * = . 1 1 @ % 1 # X + = : 2 2 X $ @ o @ = 7   $ 8 : ",
"@ = 7 $ X o o + # 1 # # : # 2 5 2 # # : * ; = & X : 8 = 8 # # : # $ % ; o * * = X : 3 = = 2 9 # & : # 2 5 # = @ . & 8 1   O 7 5 ",
"X @ # $ O @ $ . = = $ 1 9 @ 2 X O @ # &   * 9 t # # = * 9 # $ 2 2 5 2 #   # # 1 & 1 O > 2 # & 2 : 1 # $ 9 7 1 # o @ : w X   & 7 ",
"X 1 - & @ # # X = @ o % # 2 w = O O @ : # 3 9 q 2 : @ * * = 2 : 2 2 5 2 : : # = ; 8 # q 5 2 : # > 5 O & # t 1 : - . $ 9 O   O # ",
"@ = 3 : # # X # = = = O O & 3 8 = @ # = : 5 # # 2 # @ * 1 # # # 2 5 q 2 w 2 O @ * = 2 5 w w w 2 5 9 # 7 $ 8 3 3 3 @ . 1 : # O # ",
"@ # # $ = : # = 1 = o X O X @ 3 7 @ = : 2 #   X # 1 9 @ 2 : 2 # X @ 2 > 2 9 . . * o 3 # 2 t 5 # # : # 5 9 # @ = * @ 3 q : X   X ",
"# & 1 # 1 & # # = @ + X # # = 3 8 & : # # :   X . & 9 @ 5 5 O O : X o X # 1 . $ % . % - # t 9 X X # : : & & = = ; ; 7 ; = = X : ",
": : # : # : # = + . + o . @ + = = & O # # 2 : & o % $ X 5 w = @ 3 = $ + = X   % # X   = = 3 2 O X # - X @ + % + * = 3 8 1 # o # ",
"1 2 = # = # # # @ . + * # # o & @ $ X # $ # # ; 3 3 $ @ ; : : & O o $ 7 3 - O 1 : O   o = # # @ X . @ @ & o   + % & = @ @ & * * ",
"# 9 = $ X O X O & o o : & : 5 : # # @ @ O + = 8 9 8 8 ; + * + . @ # @ 9 $ = X   =   . * @ o # t $   @ = @ @   + o O O . + . @ = ",
"O = # @ @ O   # = & . + & : 3 $ $ : # O O : ; = ; = = 3 7 8 3 * $ # : 9 # : X X @ o . = 3 * 8 8 . o : 1 3 8 * * % . @ 3 = * = ; ",
"$ @ @ & = @ . $ # - + . + # # @ = % + @ . @ & @ 7 @ = 1 3 9 = = = = 5 9 = # 2 7   O . O * @ 3 # & @ = 1 1 w ; = 3 o o = = # = = "
};
