/* XPM */
static char *d5899de24e25464ba2f42739049bdb7cWWm2kRFFr0xek747[] = {
/* columns rows colors chars-per-pixel */
"64 64 144 2 ",
"   c #22260D",
".  c #262E0D",
"X  c #2A2E0D",
"o  c #2A350D",
"O  c #2F2416",
"+  c #2E3216",
"@  c #2E3816",
"#  c #323A16",
"$  c #3A3B16",
"%  c #353D1C",
"&  c #393F1E",
"*  c #3A3F23",
"=  c #3E362D",
"-  c #422F1A",
";  c #4E371B",
":  c #4A3924",
">  c #513D28",
",  c #35421C",
"<  c #3B431C",
"1  c #3D481E",
"2  c #3B4522",
"3  c #3D4B22",
"4  c #40421C",
"5  c #404722",
"6  c #494722",
"7  c #454D26",
"8  c #444D29",
"9  c #4F4D2A",
"0  c #594022",
"q  c #57422C",
"w  c #5D452B",
"e  c #45512D",
"r  c #49532A",
"t  c #51562E",
"y  c #47403A",
"u  c #574A3B",
"i  c #4C5335",
"p  c #4D5A35",
"a  c #545230",
"s  c #505A37",
"d  c #585C35",
"f  c #525A3B",
"g  c #595B3B",
"h  c #674824",
"j  c #72512C",
"k  c #7C5529",
"l  c #674E33",
"z  c #725539",
"x  c #795B3A",
"c  c #57603D",
"v  c #63653D",
"b  c #565C43",
"n  c #5B5E44",
"m  c #5B5249",
"M  c #585653",
"N  c #6F5A45",
"B  c #665C55",
"V  c #5A6143",
"C  c #5F6948",
"Z  c #5F6352",
"A  c #64644A",
"S  c #636A4D",
"D  c #7D664E",
"F  c #616455",
"G  c #6B6C53",
"H  c #65605D",
"J  c #696E59",
"K  c #706154",
"L  c #677050",
"P  c #6A7254",
"I  c #6E725C",
"U  c #75755B",
"Y  c #797C5F",
"T  c #6A6662",
"R  c #6E6B66",
"E  c #6D6F6A",
"W  c #716C60",
"Q  c #6F7161",
"!  c #737365",
"~  c #7B7B64",
"^  c #75756D",
"/  c #7A756C",
"(  c #7C7B6B",
")  c #767676",
"_  c #7C7D73",
"`  c #7B7C7C",
"'  c #845B2D",
"]  c #92642F",
"[  c #80613F",
"{  c #89643C",
"}  c #8F683D",
"|  c #996B37",
" . c #956D3E",
".. c #A4743C",
"X. c #AD793C",
"o. c #B17A3A",
"O. c #876541",
"+. c #8B6740",
"@. c #9F7646",
"#. c #837E6D",
"$. c #857D71",
"%. c #817F7B",
"&. c #7E826D",
"*. c #7E8071",
"=. c #83836E",
"-. c #848374",
";. c #8C8376",
":. c #878A72",
">. c #898F76",
",. c #81817F",
"<. c #89867B",
"1. c #85887D",
"2. c #8C897A",
"3. c #938A7C",
"4. c #96907E",
"5. c #7F8081",
"6. c #858482",
"7. c #888784",
"8. c #8C8B85",
"9. c #8A8D88",
"0. c #928E83",
"q. c #928F89",
"w. c #8E9282",
"e. c #8E908D",
"r. c #969184",
"t. c #9A9384",
"y. c #96928B",
"u. c #9C968C",
"i. c #9C9B8F",
"p. c #939493",
"a. c #9D9B93",
"s. c #979898",
"d. c #9A9B9A",
"f. c #A49B8F",
"g. c #A09C94",
"h. c #ABA292",
"j. c #A5A29D",
"k. c #A8AD9E",
"l. c #B3A795",
"z. c #B3B3B2",
"x. c #C2C2C0",
"c. c #CDCCCB",
"v. c #CCD0C8",
"b. c gray84",
/* pixels */
"5 @ , 3 , < 7 < , , , < , @ 4 v d + $ 4 4 7 , 3 k.x.x.z.j.a.g.u.y.y.q.s.c.v.V . o < , , o @ , 3 < 4 # + $ $ # 7 < # < 7 o 7 4 @ ",
"5 . # 7 3 7 3 r < < 7 % o X < v d 4 4 7 1 r :.j.6.` T 3.l.h.f.u.q.8.7.,.T 7.x.b.w.5 7 , < , @ 1 < 6 6 X + 4 & 7 r t # @ o 7 4 o ",
"< . o 3 1 @ $ t 4 # 6 , , . , $ 7 < 5 7 S 8.7.7.8.7.` ;.l.l.g.u.y.8.8.6.M ;.h.f.j.x.>.3 7 1 o # # < v 6 6 9 7 3 3 , , # # 4 r # ",
"4 # . # < . + $ o o o @ , . , , r 7 7 G #.u.u.r.8.7.5.$.l.h.f.u.y.8.7.6.H f.l.g.u.8.q.z.S 1 , # % 7 t 4 4 r 5 o , o . % # & 7 % ",
"# . o @ r , @ < # 1 5 , , o # 1 t 3 n l.h.f.f.y.q.7.7./ h.h.f.f.y.8.6.6./ l.l.f.u.y.7.` s.r 5 < @ < 4 $ 5 r < # 3 # . % < < 5 @ ",
"@ # @ o 1 < # , < , 1 < o   o # 7 s W l.l.f.f.y.y.8.7.) f.h.f.u.y.8.7.` 3.l.f.f.y.8.7.6.M d.S & + 5 $ $ # $ o @ < + % X . % 5 # ",
"@ . @ 1 3 1 , @ < 1 < 5 %   # @ 8 / ) 3.l.h.g.f.y.q.7.) u.h.f.u.y.q.7.) f.h.f.f.q.8.7.R M ` 7.m X 5 ; <   X # # 7 , @     + 5 5 ",
"o   # r 1 , @ , 1 , < 7 9 o # 4 W 8.8.) 3.h.f.f.u.q.8.` 3.l.f.u.y.8.8./ f.f.f.q.q.7.6.B ` 8.8.y.5 # 3 #   X % & r 2 # .   + ; 7 ",
", 7 7 7 $ +   # 5 , 5 7 5 $ . G u.q.0.7.) r.l.f.f.y.0.6.;.h.f.f.y.q.6.;.h.f.u.y.8.,.R ` 7.8.y.u.;.X & 5   % & 4 7 % # 7 < < . 4 ",
"5 6 6 6 # 4 X X % # 4 r 6 $ A h.g.f.q.8.8.) r.f.f.y.q.%.T $.$./ / / T / f.f.u.y.8.) ` 8.q.y.u.f.h.=.$ v 1 $ < o $ $ ; t d 9 $ 7 ",
"$ + 4 4 6 d & + + # < d 5 ! ;.l.f.f.u.y.8.6.) t.f.0.! u : > h ; ; > w > u / 8.8.) ) 7.q.y.f.f.l.h.%.G 4 5 # 7 $ 6 $ $ 9 t t 4 4 ",
"X X 4 9 d v 5 5 $ $ < 6 S ) T $.l.h.f.u.y.q.,./ / l h - > > h ; > > h > O > u B R 8.q.y.f.f.l.f.$.) 8.i % < 7 4 5 . . $ 5 4 + < ",
"% $ $ 5 t t 5 5 o . # % _ 7.6.) $.u.l.f.u.y.B : > > h - ; 0 h ; ; > h 0 O q 0 w > 5.u.f.f.f.0.) 6.7.6.-.o 3 , X $ # # @ @ @ $ & ",
"1 $ 7 7 $ 4 < 7 $ + o G <.q.q.8.6.) %.u.f.$.- O > > h - > > h ; : w j h : l j ' $ M r.f.f.$.` 7.8.q.y.y.s 1 3 , + 7 4 @ % < & 4 ",
"< # < # X $ < r < 5 2 -.f.y.q.q.0.7.,.) / l ; O > 0 h - : ; k h l x ..] w O. .o.; l K $.) 6.8.8.y.u.u.f.&., , , # 7 6 < o < & X ",
"5 # & 5 5 7 < 4 # $ G 3.f.f.f.f.y.q.q.%.u h ; O > 0 h - h x X.' x +...] w O. .o.; z [ H 8.8.q.u.u.f.g.l.:.@ < < # o $ % o + & % ",
"7 # X . + # $ o X 5 =.t.l.l.h.f.f.u.y.R > 0 - O > > j h D } X.' x +...] w [  .o.; z O.O.6.y.f.g.h.h.h.f.r.< < , @ < 7 < $ o % 5 ",
"# o # % & + + # 5 5 r.H ( 3.u.f.f.h.y.N > > - O > h | j [ } X.' x +...] > [  .o.; N O. ./ f.t.0.3.;.%.) ` b % 3 7 # # < 6 o % @ ",
"# + + 5 7 @ @ 7 t # 8.7.6.,.%.%.,.7.! > 0 0 O O w } o.j [ } X.' x +...] > x  .o.; z +...D / %.%.,.6.7.8.1.( & 1 & + o X 4 < % # ",
"$ # # % < # $ r t r 8.q.y.9.8.8.7.7.B : 0 h O - [  .o.j [ } X.' x +...] - [  .o.; z +.X.+.%.q.q.q.q.q.y.q.-.& & # % & & . 4 o @ ",
"< , # % $ 6 $ $ < V 0.f.u.f.u.y.p.q.H : 0 h - > O. .o.j [  .X.' x +...] : O.+.o.; z +...| ;.u.u.u.u.f.f.f.,.& & & 4 5 2 . , , , ",
"$ 1 # 1 4 6 + + X g t.l.f.l.f.f.g.u.M : 0 h 0 > O. .o.j [ +.X.' x +...] l O. .o.; z +...] $.f.f.g.h.f.l.h.;.# 4 9 4 , % @ 1 3 @ ",
"$ 6 5 5 6 9 ; @ X p t.$.3.3.3.t.t.3.y : > j k > O. .o.j [ } X.' x +...] > O. .o.; z +...] W 3.0.3.3.3.3.#.;.d , 7 d d 3 o , r 7 ",
"4 4 2 9 d d 7 3 # < f.$.;.%.3.3.3.;.> : : m u > O. .o.j K [ X.' x +...] h O. .o.; z +.| @.f.l.l.l.l.l.l.t.~ 9 # @ 6 d 7 , 3 d v ",
"9 c 9 t v 6 @ @ o # i.l.l.l.l.l.l.l.B > l z m > [ +.o.j B N o.' x O...] > O.+.o.; z +.| @.f.f.h.h.f.g.h.t.U < # # , 3 # , 1 1 v ",
"4 9 4 9 9 6 & # @ @ a.f.g.h.f.h.f.f.T : m B B m K D O.N B K +.N N +...] h O.+...; z +.| @.0.u.u.u.u.f.u.y.Y 4 5 1 7 , @ # # 1 7 ",
"$ o 4 r % $ , , , # a.u.u.u.u.u.u.s.H > M T E H H T T H H B T B B [ ..] w O.+.X.; l +.|  .0.q.q.q.y.y.r.0.U $ 4 7 < , , < , , , ",
"6 4 1 7 7 . X # @ r d.y.q.q.q.q.q.p.M = N N M y N O.+.l m N +.j z +...] w N N | ; l +.| +.6.8.7.7.8.7.8.7.A # 4 4 # 3 7 , 3 r # ",
"7 < $ 7 t $ % , @ t d.7.9.8.7.8.7.7.m > O.D > > O.+.o.l B K X.' x +...| u M y N > l +.| x W ) ` ) ) ) E ) C 3 < 1 < 3 < , , d 7 ",
"7 t $ 4 t 4 < , , 1 d.5.5.5.6.%.` 5.y q B T w > O.@.o.j N x X.' x } .. .u > y > u l +.| h M ;.;.$.$.$./ / L , @ , . @ < 1 o 7 < ",
"7 d + X $ t 5 t 7 3 r.Q ! R R R T H = > O...k > O. .o.j l x o.' x O...[ > l N ' q u +.| h ;.l.l.l.l.l.l.h.J @ @ , . . % & 3 4 # ",
"7 c $ $ 9 6 o # < < t.h.l.l.l.l.l.l.m > { X.k > O.+.o.j w { X.' x +...> > z } ' - u +.X.> $.h.f.h.h.f.h.h.P o 3 7 @ .   + # , < ",
"@ 7 7 6 4 $ @ @ , 3 r.f.l.f.f.f.f.l.B > } ..k > +.+.o.> h } X.' x O...> : B D N O u +...0 $.f.u.u.u.f.u.y.Q # 7 t ,     + % & & ",
"o # 7 9 o . # , @ 3 r.u.f.f.g.g.f.g.m : +...h > +.| o.h x +.X.' x +...' = M B m O > +...h ) q.q.q.q.q.q.8.J , 1 7 # X # $ & # 1 ",
"    @ $ X   @ < , r p.q.0.q.q.q.q.y.m > +...h > +.+.o.j [ +.X.' x +...] O x +.| O w +...k R q.8.8.8.8.7.7.! , # 7 + # , o 6 X # ",
"@ o + @ + < # @ 1 r y.7.8.8.8.7.8.8.m > +...> > +. .o.j O.+.X.' x O...] O O.+.o.- > +...] H 6.%.5.5.6.5.` I % o , @ % 7 # 7 & @ ",
"3 1 @ # 4 d < X % r y.%.%.,.,.,.%.6.m > +.X.> > +.@.o.j [ +.o.' x +...] : O.+.o.- l O...] m R R R T T H ) f . . & 5 4 5 + $ & . ",
"7 d 7 + . + # , < d y.T / R R T T B : q O.+.w > +.+.o.j [ +.X.' x +...] h O.@.o.; z +...@.f.l.l.l.f.l.l.0.2   + & 5 % X . # 4 X ",
"7 < r 5   o # v 9 t 2.h.l.l.l.l.l.h.m > B B > > O. .o.l K [ X.' x O...] w O.} o.; z { ..@.f.f.f.l.f.l.f.3.i # . , 4 6 # o + $ $ ",
"< + < 5 $ % r r 9 # &.h.l.f.l.f.l.h.B > O.N M h O.} o.j m N X.' x +...' w O. .o.; z } ..@.f.f.f.f.f.f.u.<.8 @   % 3 & # 2 7 9 6 ",
"< 4 $ X $ & < 4 5 o _ u.g.f.f.u.a.f.H y H T T H K R D B H K D K N O...' w O.+.o.; l +...@.8.y.y.y.y.y.y.-.8 @ o % , # # 7 t 4 < ",
"& $ 4 X $ & , 5 + # -.q.y.q.y.y.y.q.T > H H T H H B H B H B K B m O...k w O.@.o.; l +...@.6.q.8.8.8.8.8._ e # , 1 o & r r 7 + 4 ",
"$ $ 4 X 9 4 , < < % 1.8.8.8.7.8.8.8.M : N O.m > [ { ..l m N ..k x +...j h O. .o.- h +...+.%.6.6.7.7.6.6.^ 5 % < 4   o , 5 6 $ + ",
"9 4 4 4 9 + + 4 9 + -.,.6.6.6.6.6.,.m > D K y > O.| o.l H D X.' x +...h > O. .o.- > +.| k m M M M M M M R * < ; $ # . + o & 5 4 ",
"7 4 6 $ < $ o 9 4 X -.T R T T T T H > > N D h > [ } o.j [ [ X.' x O...j > O. .o.- w +.| j %.f.t.u.t.u.4.U $ # t 6 7 # o # 2 6 t ",
"6 4 5 $ $ r $ 4 9 $ =.h.h.l.h.h.l.g.M q O.X.k > [ } o.j ' x X.' x +...' > D } o.- l +...{ f.l.l.l.l.l.l.~ r 5 9 4 , , + # 7 t t ",
"5 & o # # 5 $ 4 6 6 -.f.l.h.f.l.g.l.K > { X.k > z +.o.j z x X.' x +.| ] > x } o.: z +...@.f.f.f.f.f.f.f.=., 5 7 1 @ # X % 5 5 $ ",
"< # o o X # $ + X 4 #.g.u.f.u.f.f.f.B : x X.k > l +.o.j l x X.' z +.} ] w l } o.; z +...@.r.r.t.u.u.u.u.-.2 1 o + . % # + 4 7 $ ",
"$ , o # o % 4 $ $ $ ( q.y.y.y.y.y.y.B - x X.k - > +.| j l l o.' x { ' ] > > x o.; z { | @.7.q.q.y.8.8.y.$.* X X   . o & 5 # & $ ",
"5 1 7 < 1 1 + # 4 < <.7.q.8.q.8.q.8.m - j X.j O > @.' 0 [ w ' ' x { j ] > > j ..; z z ] @.6.8.6.7.7.7.7._ e   $ +   . & & 2 X X ",
"< 7 < < 5 , % X $ 6 8.6.6.6.6.6.6.6.M : u [ l : u N z > N N u l N N l z m u u O.> m u z D ) ` ` ` ` ` ` / a 4 & 8 o . & + 4 4 # ",
"# 6 7 v 5 & % o $ 4 <.T R R R R R R %.u.u.u.u.u.u.u.y.f.t.u.u.u.t.u.u.u.t.f.y.u.t.f.f.y.r./ / / / _ / / I g 5 & & +   d + + 5 $ ",
"+ < v v # , % # # & 7.6.7.8.7.0.8.8.q.q.y.q.q.y.q.r.r.q.q.q.r.y.q.r.y.q.q.q.r.r.q.q.q.q.q.q.q.q.y.q.q.y._ i # # o # < 6   # r 4 ",
"% , r + X o o @ $ 9 8.` ,.,.,.,.6.6.6.%.5.5.5.6.5.5.6.6.6.5.%.6.5.5.5.5.6.6.5.5.6.5.6.%.6.6.6.%.,.,.,.6.^ B < # X % r 5   + 7 9 ",
"X # $ + + # + * #.;.! R R W R R R R R W R R R R R R R R R R R R R W R R R R R R R W R R E R R R R W W R H ( U n o # 5 d X   , 7 ",
". 4 5 < $ $ $ n ;.g.f.f.f.f.f.g.f.h.f.f.f.f.f.g.f.f.f.f.f.f.f.f.f.f.f.f.h.f.f.f.f.f.f.f.f.f.f.f.g.f.g.f.f.f.2.~ 5 . # t +   + $ ",
"# < 7 4 $ $ o G %.f.u.u.u.y.u.u.u.u.g.u.u.u.u.u.u.u.u.u.u.u.u.u.f.u.u.u.u.u.u.u.u.u.u.u.a.u.u.u.u.u.u.u.u.u.r.1.8 % . 5 4 $ + # ",
"# $ $ + 4 4 $ U ` q.q.q.q.q.q.q.q.q.q.q.q.q.q.q.q.q.q.q.q.q.q.q.q.y.q.q.q.q.q.q.q.9.q.q.q.q.q.9.q.q.q.q.q.q.1.8.1 # 7 d 4 X   X ",
"$ & 5 $ 5 < # ~ ) 7.7.7.7.7.7.7.7.7.7.6.6.6.7.7.6.7.6.8.6.8.6.7.7.7.7.7.7.7.6.7.7.7.7.7.7.7.7.7.6.7.7.7.6.7.%.8.7 3 3 3 < < X 4 ",
"3 ; $ < $ 4 $ ~ ) ` ,.5.5.5.5.5.5.5.5.5.5.5.5.5.5.5.5.5.5.5.5.5.5.5.5.5.5.5.5.5.5.5.5.5.5.5.5.5.5.5.5.5.5.5.) e.2 < e r 5 $ o $ ",
"3 6 < $ & $ $ -.) 5.5.5.5.5.5.5.5.5.5.5.5.5.5.5.5.5.5.5.5.5.5.5.5.5.5.5.5.5.5.5.5.5.5.5.5.5.5.5.5.5.5.5.5.5.) p.< % , % # % , , ",
"$ t < + X + X _ ) 5.5.5.5.5.5.5.5.` 5.5.5.5.5.` 5.5.5.5.5.5.5.5.5.5.5.5.5.5.5.5.5.5.5.5.5.5.5.5.5.5.5.5.5.5.) s.@ + + . # . # < ",
"+ & $ # # +   ! E ` 5.` ` ` ` ` ` ` ` ` ` ` ` ` ` ` ` ` 5.5.) 5.` ` 5.` ` 5.` ` 5.` ` ` ` ` ` ` 5.*.` ` ` 5.) 9.% X # 7 < # 1 1 ",
"# # # & < # . 8 $.) ) ) ) ` ) ) ` ) ) ) ) ` ) ) ) ) R ) ) ) ) ) ) ) ) ) ) ) ) ) ) ) ) ) ) ` ) ) E H Z Z F R J P 7 o X < 1 $ < 1 "
};
