/* XPM */
static char *f977ee19cda84394e5042945bbd60408NPtyNx9ibkTbuVih[] = {
/* columns rows colors chars-per-pixel */
"64 64 26 1 ",
"  c #414723",
". c #3A3E19",
"X c #2F3314",
"o c #313D17",
"O c #35421B",
"+ c #3B461F",
"@ c #434D25",
"# c #353D1A",
"$ c #323816",
"% c #2D3914",
"& c #2A3410",
"* c #3C421B",
"= c #40421F",
"- c #252E0E",
"; c #474D28",
": c #393F1F",
"> c #2C2F10",
", c #3D4B22",
"< c #373918",
"1 c #4A532C",
"2 c #51562F",
"3 c #494622",
"4 c #20260A",
"5 c #504D29",
"6 c #595B35",
"7 c #63653E",
/* pixels */
" %O,O+@+o#O+#% 76X.=*@+o,,++;;:=*+@1oO#-&+OO&oO,+=XX<<$@+o+@&;=X",
" -o@,@ 1**@#&>.76==@+@2,O@@O;*: =%O+Oo+ %+@o+O%,*33>X=*@12o%&;=>",
"*-&,,%<2=$;::-O.;* @ ;-o,+,O1 212 %oOoX#O,1+;,&o$=7335;,,OOo$ 1$",
"=$-o+-X.&&&%O-OO1;@ <<>.OO+&;5366@$.+.;:  @<@*#$#@2==1 &O&-#$:;#",
"$-&%1oX*$+,OO&o+2, *3=.12@+% 232@.@;.#  # @*#* +%*=. 1*%,$-#:: %",
"%o%&,+$:+O++&4&o;+@;*=;@@$#$&.*3*# @=:$&%O&ooOo:X .<$.&%+X#>-: $",
"%-%+,,o%++* #4%%+1+*;311@$ ;=* @  : $  %%&-%O@o-> ==4-$o@:X44X  ",
"&4o1+O%+,#*;5>$ ;#&*61@*.<= 61 ## #::;:+2o%%%++=>$ <4>#:1 <>4X=;",
"O@;;<X4o # ; <- 1$.@1*@  =:= ;#>:4X  *X*+&+O,+17=>. 4#:=;#<;=*-=",
" ;33<=--#$=13<<$** .*#*.<=:::@@+2$$#:+*@#%OOO#572<<7+#*><<=265.;",
"<X==36:XX$*6  @XX ++o%->: :4$1,+ :$$&&+.X%Oo-$3366== $;.3<.522=*",
">>=567  .<*;* ;.-:+;#4-##::=11O#+;6<<  @,O1:4 63=3$$#+;= --< *X*",
"#<< 22  &-$##.<$4-X#=:$>$#@@6,%,,@;== .+,@@:4552=$$&&,:><X#%%%<=",
"+.;;<=+;.X&*1.X.=$$>< =:#$+O+@@OOo. @#%O%% #4>55.#Ooo,,#X;=%#:#=",
"+$*$><*1* ##@*.=1::#$;: 2*$<*;2OOo$<=o$+-- 1=335<OOO,oOOo@;.&+:>",
" $:  ;**$.+&#@ 16@,1:<=;6;5*.22%@*o.1;1+--:6=635.%O%O%++o&.#&X:#",
"@$>-X$.&> 1X  :: ,@1+-*.352=#1+%,O*11@O,o&:<;;=3$%O%oo+O%*@*.&# ",
"$&$#:XX$  1; $XXX%+,*$<.*.; &+$O%% 1+&&%+#X$:.36 @;o-&# @$o*;>#%",
"$XX ;%%@2&#;;+X-:%O+,* o.&:@#O&Oo-$ $&:&%%o :#***,1+4-: :X&>=*#o",
":$o#*$.12**#+ ;: %%oO;;; :,@,-&O,oX1:+;----; -+@@3@,4X::$#::-=&%",
".Oo#.3<<*;@$o$11O%@,O1126+,6,4<+:#-:$= %O%-;6:6@25* %$:::=  -OOO",
".+o+=3XX>+@#--$=1&&+,-*11&o2O4111 $$4- ,Ooo.22;.* 12=<$=5=:#%+,%",
".;  35=$-,+,O&>>5<X =><::%&O <; +*;@ +**O+*==; %**57=56:166 &O1@",
"3= 566; o+,+Oo<.3<$=1*::#X##;:#%$*$#2*% *;*.=22+, 35=55$% 6@O,67",
"365273X%&oO+O+;1+#$$ :-:X$:#>$$+ ;+$6@#2@<36=@;+Oo3655.$$:,oo+,7",
"33;553:o%%%@%21,&&%&o#&: $:=* %o$12@1*$  *5;.$;;o..576= +;O%oo+;",
"<>*@#.:#oo-+$:#oOo&--#:&:= . @&$ .*1*&##*@=<2< 1 ;=566.=;+OO+OO#",
";=,@@--oo1++#$$&: $$4$=%% ;=@@+; #-@@#XOo, <5375=>;*; $==%,@O,1#",
";*#@2.#O%26@  ::##>;3==;++1:%%%  ,&%@,#O,+ .3=76X-+O+@,*++,+O#6;",
";2.=53+## .<*=;++&>;33;;%:@%&%&o@2,&&o%OOO&>$=5  #o%%+OoO-%++&;+",
";6X><5@2@,$##+1%%&.;25X-4oO&-o:OO1,;O+:@%%#>X22@ oO%o%%%o--#:  $",
"@6<<5;&o+++,o+*&&o#.62>&#&%&&%,,o,@@+*==%4#$>11@++#&%&&@@%-4X$#:",
"%@1;=.%%O,@o&@1,;*+*$=.O;#%o+&++O@Oo$.5;@XX:4&o1+;+&4-o;2:44X#::",
"&%@5>-oo%,+&-&17@O12# *O,+@+,oO,OO&&&=;3X- 2X-&O+.@;-4O+@$-$<:$ ",
"44$<>4%+O2,*&&.@%o+2+O%%%%O+O+@,#1@O%>$.+o67$#OOO&;6 XOo@X$:>;>o",
"%&X$X:o%*1&& ;11$*+@@,+,%%o&&#@@**,+o$:=,* =$:O+1.$$::#&O$:;$;:%",
",+$$=6*-#1;.26;@OoO@+;@+,O+&-&:#*$#@$  #%O+->>oo6 $#$:--: = X.:-",
"@6@X-Xo:*62#>=:  $&%%O%&::XX#X#--4X5X =&%o#-$>--1*oOO&4X: #>-$=>",
"@*2 4&o752;OX<<X=#4#O@&#$-XX#=.#44:526 ooO%+XX--1 &%OO$-: ;$&X<<",
"*X. <#115$o,+<X-=:-$#@&%O&#:$*;;44<:<=+%+@o@2+-&#<-#oO%4#,*$ @53",
"*=$><:+  &&+o==<;=:.;@ @O%o+$.. =<>>X&o%-O1+71X#<<&o#o%&#Oo$;2**",
":.=><:O X$O@,:6;. 1=:;*@O%O;o$%=6$4*:o%-&&,@@+#$; >&,O$:+&#11;X=",
"<.=>5=#:=#O,%-:X.#:. =.,,@*O%#@16#&++o#+o4OO&$#$ <-&%$#==4&: ;<X",
"5=3=5XX=5X&O%-%O#$-#1;++,@o@%&+1+oo+,%#=$X#o##>< :-Oo#==.$-X>: =",
";=3.*.>5=>%, #O+OO& 1#:4,,%+o%#**+oOO>X:<>&-O$-XX%%, <$23;o&$ ;2",
"3= ..1<=5. 2;++oO@;11X#-%%*;#$%o@+o,+ X; -oo+:X:4$#++@ 5=OOX$@22",
" #&%o .=332; #oo***@2 ;X>$# ;=$O,,O,#X=5;o,+@;:XX $@@%,;+%$>#  <",
"*o&&-$.X>=3=.-%-&o$=#> =>>*;;$XO+Oo@ <<.X-,@161:=;*+2o+&X-#$X=;.",
".#&o&#=<.<.>-Xo%::>:=4$>$X.@;$$oo%Oo,;X<$%O,,@==#+#O2X>>4-&: $:.",
" +,*++X$3=5>-&o%o#>4>><-:;<*111&-&o%o$-X:o%O,O@.o%+.2:4<X4-:: >>",
"* *+ O#><36. ##-4$=<>  $X<$X.*;<=#-%O+## oOO%o;*OO*253=:;&-:X= $",
"$;;7@:#&$=5<X>$X>>  <12>>>=*4$$X==oOo@@O$:+oo.;.oO=7== ::X46XX <",
"X+77$:O$$$=.<X>35.*;*;#$>=6 ><:X<. @OoOO-  o# .>X*=33>$$&o:;4$1=",
"#:1X>&&%. <<=<353..*O,+:> 1 1.<=<$#,&OO*> @.*;2<:=.35<*o-#1 4X;5",
">$<XX$X-*+$ 2$3>X$.:4#27..+o2$$3353.4.. # X33<=3=3<X2; $&$ 6>4:;",
"-  *<.<>:%&#<;6=XX$=<;263=%OO*3=3353==<=,1.653=<35X*.7 = -$2X4X<",
"$:@=..><*+:XX:;1+$<*=5<<3<#O <..356363X$O*35666352.;X1@;@o- =<X<",
"$<.X*=<= :&>X>o@;$*=3.4>< 2$3=3.><33;2--O&;.375<<=.52<<+Oo;6=>4>",
"<* . *$.+o%><$*@1#=<.=4--:2$55XX=>&>< -$:-# .75>>$==:#** ,@ *:>=",
" =.*<=.*%-%>><%*,*X<<3=#&#X>56=$@:$X:>4#$>4:+@3X>. >$$#%O+@1 .&.",
" 3*.*.<<$-%#<$&*$X><$<<,@@$o ==#X&X;; X  X4&O..<>-$$#&4%##:#o#OO",
".2*X>X>X#&&===5=..$$XX+1211,%O%-#$$2$:>4=4-O%&.7$4#*o$4%&XX-%-o+",
"X*.$$X4<*:-o#=;$$=<XX  +,,+;@1@o$. 2.=>><--+@O11--* @1:O#-$@+o+,",
"$$%#+$-$< %-%.<%*#%$-$#$;$. ;2 ++:52..;;4X-Xoo;.#o+  6,+;&>* <.+"
};
