/* XPM */
static char *a13b5dc3d03c4c7cadcd3f3f8f8b5938QVNtwUA2NWm8jS50[] = {
/* columns rows colors chars-per-pixel */
"64 64 181 2 ",
"   c #1A1918",
".  c #1D1C1B",
"X  c #1D1D1B",
"o  c #1E1D1B",
"O  c #201F1D",
"+  c #22260D",
"@  c #262E0D",
"#  c #2A2E0D",
"$  c #2A350D",
"%  c #2B360E",
"&  c #23221C",
"*  c #22211F",
"=  c #23231E",
"-  c #27271F",
";  c #28291C",
":  c #2E3216",
">  c #2E3816",
",  c #323816",
"<  c #323C16",
"1  c #323D16",
"2  c #383816",
"3  c #3B3D16",
"4  c #353D1C",
"5  c #242321",
"6  c #272523",
"7  c #292724",
"8  c #2B2826",
"9  c #2D2A25",
"0  c #2D2A27",
"q  c #2E2C2A",
"w  c #312F27",
"e  c #312F2B",
"r  c #2F3025",
"t  c #363A20",
"y  c #383D22",
"u  c #31302A",
"i  c #34312D",
"p  c #36332F",
"a  c #3C3E2C",
"s  c #302F32",
"d  c #393530",
"f  c #363830",
"g  c #393830",
"h  c #383C30",
"j  c #3E3E32",
"k  c #3D3834",
"l  c #3F3F37",
"z  c #3B3B39",
"x  c #39383A",
"c  c #3E3E3B",
"v  c #3F3E3C",
"b  c #413F35",
"n  c #413F36",
"m  c #403D38",
"M  c #35421C",
"N  c #38401C",
"B  c #3D421C",
"V  c #3B471C",
"C  c #3E4623",
"Z  c #3D4B22",
"A  c #40421C",
"S  c #42441E",
"D  c #404722",
"F  c #494722",
"G  c #434824",
"H  c #404E25",
"J  c #424D26",
"K  c #474D26",
"L  c #424E2B",
"P  c #474C29",
"I  c #4F4D2A",
"U  c #4B4D2D",
"Y  c #45522B",
"T  c #49532A",
"R  c #51562E",
"E  c #474437",
"W  c #4A4937",
"Q  c #484C34",
"!  c #414038",
"~  c #47403A",
"^  c #42423D",
"/  c #4B4F39",
"(  c #495136",
")  c #4E5836",
"_  c #545231",
"`  c #555A34",
"'  c #595837",
"]  c #585C35",
"[  c #53553A",
"{  c #50503E",
"}  c #54573F",
"|  c #51593B",
" . c #535A3F",
".. c #5A5F3C",
"X. c #5B623F",
"o. c #63653D",
"O. c #403F42",
"+. c #413F43",
"@. c #474741",
"#. c #4A4540",
"$. c #4A484F",
"%. c #554A41",
"&. c #4E5240",
"*. c #525441",
"=. c #515446",
"-. c #525746",
";. c #555544",
":. c #555645",
">. c #535942",
",. c #575D40",
"<. c #575846",
"1. c #575E45",
"2. c #51504E",
"3. c #55574E",
"4. c #58564E",
"5. c #565A4B",
"6. c #5A5B4A",
"7. c #5C5E48",
"8. c #575550",
"9. c #5B5956",
"0. c #53515D",
"q. c #605448",
"w. c #695C50",
"e. c #596145",
"r. c #5B6044",
"t. c #5F6045",
"y. c #5B604C",
"u. c #5D624C",
"i. c #5E634E",
"p. c #5F605C",
"a. c #636745",
"s. c #61654F",
"d. c #636A4E",
"f. c #6B694F",
"g. c #616254",
"h. c #676E57",
"j. c #66675A",
"k. c #6A6A58",
"l. c #686A5B",
"z. c #696C59",
"x. c #686A5E",
"c. c #746456",
"v. c #7E6C5D",
"b. c #6E7151",
"n. c #6E715C",
"m. c #707357",
"M. c #5C5A68",
"N. c #666563",
"B. c #6E6F63",
"V. c #6A696A",
"C. c #737362",
"Z. c #727961",
"A. c #767868",
"S. c #6D6B7A",
"D. c #747371",
"F. c #787772",
"G. c #7B7B79",
"H. c #7F7E7E",
"J. c #887463",
"K. c #937E6C",
"L. c #8F8D7F",
"P. c #9E8772",
"I. c #A38E7B",
"U. c #AC937C",
"Y. c #8B8B8A",
"T. c #969594",
"R. c #B29880",
"E. c #BB9E86",
"W. c #AFA193",
"Q. c #ADABAA",
"!. c #B9B7B6",
"~. c #C2A58C",
"^. c #C9AA90",
"/. c #D0B096",
"(. c #D2B297",
"). c #D6BCA6",
"_. c #CDCCCB",
"`. c #D5D4D4",
"'. c gray87",
"]. c #EFE6E1",
"[. c #FCF3ED",
/* pixels */
"D > M Z M V J V 1 4 M V 4 > D o.] : 3 A B J V 1 Z Z V V K K 4 A B V J T 1 M 4 @ $ V M M $ 1 M Z V A : : 2 2 , J V 1 V J $ K A : ",
"D @ 1 J Z J D T B B J 4 $ # 3 o.] A A J V J R Z M J J M K B N D B , M V M 1 V D > V J 1 V M > Z B F F @ : A B J T R 1 > $ K A @ ",
"B @ $ Z Z > 2 R A , K N N @ M 3 K B D J D K @ 1 Z V Z M T D R T R D > 1 M 1 : 4 M Z T V K Z $ 1 , B o.F F I K Z Z M M 1 , D T < ",
"A , @ 1 V @ : 3 $ $ $ > M @ M M T K J D 2 2 # 3 M M V $ K I F ] ] J , 3 V 3 K N D D J 2 J B 4 , 4 K R A A T C $ M $ @ 4 , 4 K 4 ",
", @ $ > T 1 : B , V Z M M $ 1 V R Z D B F A 3 T R )  .{ &.5.-.7...2 J K 3 4 D D M C J B 4 A D V > B A 3 D T B , Z , @ 4 N N G < ",
"> 1 > $ Z V , N V M V V $ + $ 1 K V J K A S 7.^ 8 O . . o * o o . O 5 e ! ( , % > M $ 1 < M < 4 : D 3 2 , 3 $ , V : 4 # @ 4 S , ",
"> @ > V Z Z 1 > V V B D 4 + > > V T V B :.0   o 8 e i i p e e p p p p e 8 o 5 d > $ @ > M K < @ @ D A A + @ , < G 4 : + + : Z D ",
"$ + 1 T V M > V Z 4 B K I # , D K 4 $ w   * 8 p d p d i i e 8 6 0 p d k c n k 7 & 9 > > > V V A # < D 2 + # 4 N T D 2 # + : A K ",
"M J K K 2 : + 1 D 4 D K D 2 @ D K 3 o o 0 e s d p p p p p p p i 8 6 e p p d m m m q O 4 Z V T o.A # 3 D + 4 M A K 4 2 K A B @ A ",
"D K F F 2 B @ # 4 , A T F 2 2 , b   6 7 0 w 0 0 q q i p p p p p p 0 5 e p p p p m %.m 5 e 2 I o.R 2 2 o.V 4 A # 2 2 A R ] I 3 K ",
"2 : A A F ] 4 : : , B ] D D J a * * 0 i p p p e 8 6 o 8 q p p p p p q 6 e m m e k %.+.n e ; F F ] ] A A D , K 3 F 2 3 I R R A B ",
"# # A I ] o.D D 3 2 B K B D } o 6 0 e p p p p p p p p 8 5 O 0 p p p p e e m m k e m m %.n e n F A F , , 4 V K A D # @ 2 D B : B ",
"4 2 2 D R R D D $ @ , 4 4 U - * q q u p p p p p p p p p p 7 o 5 i p p k p k m %.e m m m %.+.8 _ A , , $ $ Z 4 # 2 : 4 > > , 2 A ",
"V 3 K K 2 A V K 3 : $ B T l o 8 0 8 6 p d p d p p p p p p p i 5 * i p d n c m #.s k m d %.n m O 3 4 M 1 1 Z Z 4 : K A , 4 M 4 A ",
"V , B , # 2 B T B C 4 4 i.. 6 7 8 6 o 8 6 8 q e u p d p p p p e 6 * u d k #.#.#.m p n p n m %.d * M M M Z 1 M M 1 J K 3 % V 4 # ",
"D , N D D K B B , 3 V 1 v o 8 0 8 8 u u q 7 * * o 6 0 p p p p p p 7 * q k m #.#.m p n d m m m m 6 a M , M > V V 1 $ 3 4 % : M 4 ",
"J , # @ : , 3 $ # D T *.* 6 8 w 8 u p d d p p i 8 5 O O 6 e p p e m 7 O e m m m m q m e m m p m i - M > < < V M , B J B 3 $ 4 D ",
", $ , 4 N : : , D D T 6.  8 6 5 0 0 p p p p p p d p e e 5 . 6 e i i i 6 6 m d m m 6 k 7 d p p m k * >., @ $ 4 D J , 1 B K # 4 > ",
", : : D K > > J R $ 4 m O 8 6 5 5 6 6 u p p p p p p d d s w 5 * 6 m m q 6 i i e m 9 d 6 d p p p k 0 x V + @ M D 4 : $ # A B 4 1 ",
"N , 1 4 B , 3 T R B G 7 5 5 O 5 o o 5 5 5 0 i p p p p d p p p 0 O O e m q 6 p 7 d 7 w 6 p w 8 w d p 6 e.+ : B 4 , 4 M B @ A $ > ",
"3 M 1 4 3 F 2 2 B K e.. 6 7 6 0 0 7 i p e 0 7 e s p 0 O . O 0 e m 8 7 i p 9 i 7 e 7 e e e O 6 p d k O s.> , 4 B M A D D @ M M M ",
"3 V 1 V A F : : # V i.o 7 0 8 8 0 0 i p d d i e e 6 O e #.k 5 O 7 i e q i i e 8 8 e e 8 O O O O p k O z.A < , A I A 4 4 > V Z > ",
"3 K D D F I A , @ Z 6.o 8 0 7 5 . . 6 0 i p p p 6 O q.P.U.I.v.d O 6 i m i p e q e p s O k J.q.O 6 d O C.A I ] N T ] ] D $ M T J ",
"F A D I ] ] K D 1 V 5.  8 0 0 8 5 5 . o 6 0 i e . %.U.E.~.E.R.P.m O O 8 p p d e i d O 6 J.E.R.q.o O 6 n.A I I , < D ] J M Z ] o.",
"F ] I R o.F : > $ 1 -.  8 8 8 8 6 0 0 6 X 6 i 0 o J.R.^././.^.E.U.J.9 O 8 m 9 m e 7 . w.U.^.^.U.9.  9.b.I I 3 , , 4 Z M 1 V V o.",
"F F K I I F N 1 > > -.  6 * 6 5 . 5 7 0 0 5 0 0 o c.R.^./.(./.^.~.U.K.m O   O   . . 3.I.U.^./.).I.o D.' o.] A D V K M > 1 1 V K ",
"2 # B J 4 3 N 4 1 1 { . 7 7 0 0 7 . . 6 0 8 0 i o %.R.^.(.(.(.(./.^.E.U.J.%.m m %.J.U.~.~.^./.).I.o F._ ] ] 3 A K V M M V M M 4 ",
"K A Z J J @ @ 1 1 T e.  * * * 5 7 0 5 . 6 0 0 q * p K.E.^.(.(.^./././.~.E.U.I.K.R.E.^././././.).K.O A.B K D , A A , V G M Z T 4 ",
"K B 4 J R 3 4 M > R a.x     * O   5 0 5 o 0 q 0 X . 6 k c.U.^.(./././././.^.~.~.^././.(.(.E.c.~ p 6 d.M V J Z B V V Z V M 4 ] K ",
"K R 3 A I F V 4 4 C 3 s.7 n J.c.d   O 6 5 8 0 O   5 q 7 . 0 %.K.~./././././././././.(.~.v.d O 5   e | > > V M 1 M @ > V V $ K V ",
"K ] : # 2 I J R J Z , y.6 c.#.%.J.k   5 0 8 6 o . 8 p e s 0 * 5 m J.E.^.R.U.^.~.P.R.K.n 5 5 e p O c L > 1 > > > 1 @ @ 4 N D D , ",
"J ] 2 2 I K $ 1 V V V i.7 %.d d %.K.v . 7 0 5 o . 5 0 8 e e e e 7 O m %.i 9 J.w.5 0 7 5 0 0 6 7 . 5.4 $ > $ $ J J > @ + > , 4 N ",
"> J T K B 3 > > M Z K >.7 %.e d 0 J.J.O 6 q 6 o O 5 7 o . . O 7 9 9 6 O 6 O J.m O 6 6 6 5 O . 5   j.B $ + @ 1 K R M + + : 4 M B ",
"$ > K I # @ 1 1 > Z V ( 6 %.O e q.m I.p . 0 o i p .   v V.2.s 5 O 7 7 9 6 6 K.q.. 6 . . e e s . O x.J K # + M V K , # , 2 4 , D ",
"+ + , 2 # + > V M R C B 7 %.i m J.#.J.m . 8 . %.c.7 5 Q.'._.!.T.w.O O O O +.~.K.8 5 $.H.Q.w.x   = i.K ] G : M 1 J : , M # K # 1 ",
"> $ : , : M 1 > B T $ $ #.e q.m K.w.c./   5 5 c.I.J.s Y.[.[.].].T.m S.2.e U.(.(.v.e Q.].].H.6   7 q., , 4 M 4 $ M , 4 K , K 4 > ",
"Z V , , A ] B # 4 T K 3 X.* %.{ q.J.w.J.7 o %.P.U.E.c.d !.[.[.[.!.M.J.m J./././.E.a N.`.`.w.d n 6 e., 4 , M @ @ 4 D A D : 3 M # ",
"J ] J : # : 1 4 B ` R 4 @ %.6 J.J.w.K.I.J.v.P.R.U.E.~.%.s K.!._.!.w.8 %.E././.^.U.K.d m x d I.c.6 K , M M $ + : M D 4 # # , A # ",
"J B R D + % 1 o.I R K M : 2 x m I.K.U.U.R.R.R.R.R.~.(.~.J.p e e s p c.~.(.(./.K.w.E.U.v.J.R.).w.8 Z $ > M M , @ M G K , $ : 2 2 ",
"B : 3 D , 4 T T I , 1 Z V 2 y i %.U.U.K.P.R.R.R.R.~.(.(./.~.I.I.I.E./.^.~.^.U.J.x c.K.J.c.~.).~ z , # 4 1 M > + 4 A B , D J I F ",
"B A , # 2 M A D D $ $ V , A A A c l q.d v.R.R.R.R.^.(.(.(.(.(.(./././.c.m +.m 9 6 6 6 O O W.W.6 W 2 $ 1 4 1 , $ 4 M 1 , K R B B ",
"M 3 A # 2 4 M D : , M J J 4 ] G 3 w.x.0 5 q.P.R.U.~.(.(.(.^././././.^.q.  O 9 9 9 8 8 O 9.Q.%.5 K D # $ Z M , 4 V % 4 T T K : A ",
"2 3 A # I A 4 M A 4 M Z > @ 4 > 3 4 D l.+.. d c.I.U.^.^.E.~.(.(./././.U.m   O O q m m w.I.{ . Q D 2 @ $ > , 4 A A + % 4 G K 2 : ",
"I A F A I : : A I : $ M > @ , M < 2 # 4 n.x.0 . s w.P.E.E.^.(.(././././.E.J.J.J.c.w.I.D.e * W 2 D M @ M 1 4 A A 3 , @ > # M D A ",
"K A F 3 A 3 # I A # > Z Z 4 M V M M $ D T J n.8.    7 v w.K.U.E.^.^./././././.~.w.5 s . +.$.@ : : , > Z D 2 , R F K 1 $ , C K R ",
"F A D 3 3 T 2 A I 3 D R K V V 1 M K G T T : >.3.. .       . 7 p m { q.q.w.m m m 5   5 K.a.t : B + , 4 V V J D I A M M : , K R R ",
"D 4 $ > 1 D 3 A F F R K D 4 1 1 B B B J R D B.7 s $.x . 0 e 5 o O   O     O     O O 8 K.L K 4 : : C , J J > Z K V > , # 4 D D 2 ",
"B 1 $ $ # , 3 : # A F A 3 @ > @ $ 1 , A 4 4 x s $.M.$.5 s +.O.x 6 O 6 O 6 9 O m +.e e 2.1.] T M A K B V R 1 V $ : @ 4 , : A K 3 ",
"3 4 $ 1 $ 4 A 2 3 2 3 # @ : 1 > 4 B @ N A } 5 +.$.0.0.5 s $.0.$.x 0 * 6 6 5 0 M.M.6 @.7 z.G A A 4 V 4 M R : # # + # $ 4 D , 4 3 ",
"D V Z B V V : , F A I # @ $ 1 > < 4 # + # m * x $.0.$.5 s $.0.0.0.0.x ~ 2.2.+.M.M.5 O.5 2.M K 3 1 > V 3 R 4 + 3 : + # M M G # # ",
"B D B V D M 4 # 2 F ] 3 D 4 4 @ + < A 2 E O 5 O 6 s s . s $.0.M.0.S.0.2.N.9.+.M.N.5 O O 8 1.K B M M B R I F A M K $ # 4 : A S , ",
", K K o.J 4 4 $ , A I 2 : # , : # # D D ^ 5 p d p 8 6 . q $.0.0.0.M.$.2.D.9.+.M.S.8 7 k O 3.K 3 1 M A o.A A G M 4 : + ] : , D 2 ",
": V o.o., M M , , , A 3 2 : # F I 3 S K ~ O - 0 w k p . s $.M.0.0.0.$.2.V.9.x $.0.7 7 5 O 2.3 # : B A F F # , , % < M K + , T A ",
"4 M T : # % $ > 3 D 2 2 A 2 F I S 3 3 A b <.c.#.p 7 7 . . 7 s s s s 0 i d e * 5 8 8 . %.n #.R 2 M A 3 F I 2 A , # 4 T D + : K I ",
"# , 2 : : , : # B V , D R , F # : , 3 4 w J.U.U.I.P.c.0 5 7 e i 6 O 0 q * 6 6 e m m 5 d 5 +.A F A F 3 : R K D < % , D ] # + 4 K ",
"# C D B 2 3 2 # M > $ 4 2 K ] A : : , B d w.U.U.E.E.K.7 5 0 m m d 6 c s 7 6 0 5 p 7 O m 6 4.A 2 A I : A 3 o.D A D # , R : + : 2 ",
", M J A 3 3 # 2 A V M : : M K T V , 2 B [ e J.U.I.I.w.7 . 5 5 5 6 O 6 6 o * 6 8 s 0.s q v n.] F I R 3 K : T J K J , @ D A 2 : 2 ",
", 2 3 : B A 2 A D 4 $ # : # 1 K K , B A F ;.6 %.W 6.n 5 +.+.+.x x x x x s k 0.0.M.H.x 9.f.o.I < 2 A 3 I R 2 , V M 1 K ] A # + # ",
"2 B D 3 D B , 3 V 1 > # 2 , B J T 4 A 2 3 F +.. O O 7 +.0.0.M.M.M.V.0.0.s 7 0.M.S.S.x z.3 o.I # # , A A M 4 B B D Z J D A 4 # A ",
"D A 3 B 2 A 3 B , @ > # # 2 > B Z B : 2 , F q.j.m O 7 x $.$.0.M.0.0.0.+.* o s $.@.s 9...V K F : # 3 J # , , 4 > M V J T D 3 $ 3 ",
"D F B 3 B 3 2 2 , @ > 4 2 , $ B < : # 2 , 2 4 Y C.9.    . O 5 5 8 q 8 o o o o .   s g.$ N 3 3 < # # , , 4 $ + > 4 4 M 4 1 4 M M ",
"3 R B : # : # : 4 $ $ A A A I A 3 2 , , : : V Y _ N.O 6 5 8 q 8 & N.0.  6 0 p s e 6 l.M > $ 3 o., + 4 B 1 , + > $ : : @ > @ 1 V ",
": B 3 , , : + 2 B 4 @ 1 4 A K , 4 A 2 : : D Z V Z M.  O 5 8 8 7   N.P.  o 6 6 6 O * G.D J M T T @ # B A K T 4 M 4 # , J V 1 V Z ",
", , , 4 V , # , 2 D > @ > 3 2 > 3 4 > , # , y 1 P K.N.$.v x x @.9.T.Y.V.9.2.2.2.N.Y.i.: 1 1 K 3 4 < V Z D ] Z V K $ # B D 2 3 V "
};
