/* XPM */
static char *_0e650d0900943facad11a9277ff661bE7oFi5qg28xBYm31[] = {
/* columns rows colors chars-per-pixel */
"64 64 165 2 ",
"   c #19160F",
".  c #181713",
"X  c #1C1B14",
"o  c #1E1D18",
"O  c #211E17",
"+  c #211F1A",
"@  c #24231C",
"#  c #29261F",
"$  c #2B281F",
"%  c #262521",
"&  c #292621",
"*  c #272822",
"=  c #2C2B24",
"-  c #2E2D29",
";  c #312E26",
":  c #312E29",
">  c #2F302B",
",  c #313127",
"<  c #34332C",
"1  c #39352E",
"2  c #39392F",
"3  c #363530",
"4  c #393632",
"5  c #373832",
"6  c #3C3A34",
"7  c #3E3D38",
"8  c #413D36",
"9  c #413E39",
"0  c #404036",
"q  c #44433C",
"w  c #48453E",
"e  c #4A483F",
"r  c #464541",
"t  c #494641",
"y  c #4C4B44",
"u  c #4E4E49",
"i  c #514E46",
"p  c #514E49",
"a  c #4F504A",
"s  c #505046",
"d  c #54534C",
"f  c #59554E",
"g  c #5B584F",
"h  c #565651",
"j  c #595751",
"k  c #575850",
"l  c #5C5A54",
"z  c #5E5E59",
"x  c #615D56",
"c  c #615F5A",
"v  c #5F605A",
"b  c #636157",
"n  c #64635C",
"m  c #69655E",
"M  c #6D6B5F",
"N  c #666561",
"B  c #686661",
"V  c #676862",
"C  c #6C6B64",
"Z  c #6E6D68",
"A  c #716D66",
"S  c #716E69",
"D  c #6F706A",
"F  c #717167",
"G  c #74736C",
"H  c #79766E",
"J  c #7A796F",
"K  c #767670",
"L  c #7A7671",
"P  c #7C7B74",
"I  c #7E7D79",
"U  c #817E76",
"Y  c #817E79",
"T  c #838077",
"R  c #84837C",
"E  c #89857E",
"W  c #8A887E",
"Q  c #868681",
"!  c #8A8681",
"~  c #878882",
"^  c #8D8B84",
"/  c #8E8E89",
"(  c #918E86",
")  c #928F89",
"_  c #8F9089",
"`  c #939186",
"'  c #95938C",
"]  c #99958D",
"[  c #9B988E",
"{  c #969591",
"}  c #999691",
"|  c #979892",
" . c #9B9C96",
".. c #9C9C94",
"X. c #9F9C95",
"o. c #9C9B94",
"O. c #9E9D98",
"+. c #9E9D99",
"@. c #A09C93",
"#. c #A19C96",
"$. c #A19E97",
"%. c #A19E95",
"&. c #A29F98",
"*. c #A29F99",
"=. c #9FA09A",
"-. c #A1A197",
";. c #A3A097",
":. c #A4A097",
">. c #A3A096",
",. c #A8A197",
"<. c #A8A197",
"1. c #A3A099",
"2. c #A3A39B",
"3. c #A5A299",
"4. c #A4A19A",
"5. c #A7A09A",
"6. c #A5A29B",
"7. c #A6A39A",
"8. c #A7A49B",
"9. c #A4A19C",
"0. c #A5A29D",
"q. c #A6A39C",
"w. c #A7A29C",
"e. c #A6A39E",
"r. c #A4A49C",
"t. c #A5A59D",
"y. c #A7A49D",
"u. c #A5A49F",
"i. c #A6A69E",
"p. c #A5A39B",
"a. c #A8A39D",
"s. c #AAA39D",
"d. c #A8A59C",
"f. c #A9A69D",
"g. c #AAA69D",
"h. c #A8A59E",
"j. c #AAA59F",
"k. c #A9A69F",
"l. c #A9A69D",
"z. c #ABA89F",
"x. c #AAA89F",
"c. c #A6A5A0",
"v. c #A8A5A0",
"b. c #AAA7A0",
"n. c #ABA6A0",
"m. c #A8A7A2",
"M. c #AAA7A1",
"N. c #A7A8A0",
"B. c #ABA8A1",
"V. c #ACA9A2",
"C. c #ADAAA3",
"Z. c #ACACA2",
"A. c #AFACA3",
"S. c #ACA9A4",
"D. c #ACABA7",
"F. c #ABAAA2",
"G. c #AFAEA9",
"H. c #B0ADA6",
"J. c #B0ADA6",
"K. c #B2AEA9",
"L. c #B0B0A6",
"P. c #B3B0A9",
"I. c #B2B1AC",
"U. c #B2B1AA",
"Y. c #B6B6B1",
/* pixels */
", < < b o.d.7.V.#.8 8 9 q ^ 7.0.a.*.s.#.L : @ K / { ' X.:.g.<.[ ' R : ^ u u ^ ^ ) ' ) / p % v  .c.Z.1.y.7.U , e e 6 8 9 4 , @ # ",
"e 6 m <.g.7.b.X.V.U , 8 U #.S.a.0.b.s.B.0.! < u { ^ ) / @.@.[ ` } n 7 D.{ > h R ) ! / / r 3 z / | ..B.7.s.J.M ; 1 A @.%.] } ! y ",
"6 J d.<.0.B.a.V.*.X.9 4 R ] X.0.b.a.g.y.0.c.K % I ~ ' ' ` ( ( ` G > l | Q 4 % r l C C s & < y _ _ =.1.B.b.0.X.w < Y &.@.t.r.| y ",
"H g.d.:.B.*.g.7.' ^ w 8 n ^ ] X.g.y.c.=.*.' h 5 u Q ^ ^ ` [ J s & 3 5 t : 9 c t , & % > z Z - K ^ _ [ X.*.a.H.H = A ( [ [ ' a = ",
"<.7.s.7.a.g.#.' ' y & 1 6 U W @.[ x...[ =.n , 2 @ v ^ R F e < 0 N H a # p y.I.y.y./ n < _ m.= y _ ( ' ] ] } *.] 3 u { / _ l @ K ",
"[ ' o.o.o.} ( ' i ; C x # 9 ^ ! ' _ [ ' P = 5 K y + q > , l ` ;.r.U./ > G g.*.g.y.Z.[ < V y % o k R W W ' ) ) } j % K / d * K | ",
"W o.^ ( E ^ ( i @ L g.H.Y # i ! W | ' W , 2 _ i._ 0 > q ` x.r.z.r.m./ = Y 1.b.1.1.z./ & = 5 ! l @ s ^ E Y ) ^ ) h & y r o V / ~ ",
"E U E R ^ R i X F J.s.a.a.Y + g W ^ P 2 > _ r.i.t.k > M =.x.r.i.t.r.^ > R ..*.b.z.Z.v = e ' L.Z.P @ 0 R E E ! p & l 7 * v / I ~ ",
"A H H J H e # l V.%.g.B.7.g.C @ l F 2 , ~ Z.r.=.Z.D # R ' =.c.y.2...H < E ' ] o.2...q $ J J.>.d.g.^ ; 4 m n 5 2 ^ c.+.4 7 u h C ",
"& = = < , 1 8 ' s.J.*.y.0.y.#.j = 5 , U U.2.=.x.N.^ , D ..' 1.} ` ` d $ R ^ o./ ' U @ l d.z.d.:.b.V.^ , < < a =.c.} { 7 - = % % ",
"R U m 6 t 1 C @.7.0.7.a.g.7.V.^ 5 5 B B.i.d.-.-.i.=.= J [ / ) ^ J e 1 q U E ! / [ q < W s.:.g.<.0.*.V.U = y | ' R z = 7 h n L I ",
"V.s.s.B 8 9 S ] 7.*.b.B.y.7.d.@.y 6 ' b.=.i.-.d.N.| 2 n { R S r $ , 8 $ 6 D T / V X A o.` s.g.g.s.a.B.1.6 , v s 3 = C { | | m.D.",
"s.7.B.X.w ; m ' ] B.y.y.#.7.z.] 8 i ] *.z.7.d.d.i.[ 2 0 p 4 4 j E @.' ^ i + 5 t > 4 ^ ' ] o.&.z.s.7.7.o.q 2 2 M q 6 P R ) ' ' b.",
"s.7.#.K.^ & f ( ] #.1.g.;.z.@.^ , F ] X.3.7.z.<.8.` 0 < 9 K #.H.z.<.g.g.B.R 3 3 < D ^ ) ] ) ' <.7.d.#.' 2 e =.Y.P , s T / ) ^ ] ",
"' } *.g.7.l & T ' ' :.z.d.d.] T = J ' X.7.z.3.d.` ` < 2 ! } *.a.s.g.:.7.V.b.P 3 5 G ! ) ] ] ' [ @.] ' E , [ x.i.=.0 5 , d R ) ) ",
") / ' ' *.o.: l E ' ( [ o.( ] C ; ^ ] ` X.3.d.` ] ( = g { ' *.a.z.@.J.s.*.g.R - 4 V R Q ) ) ' ) ( ` [ H 0 -.=.r.=.q < v 4 = x Y ",
"j Y ! ' / { Z 3 I ~ ' ' { ' { f 4 ) ] ) ) @.^ ' [ P # L ` ' #.a.<.>.x.7.d.d.C # 6 9 R Y E ( { ) ' ] X.l u 2.2.c.' = v L.=.v * 5 ",
": 4 p G ! } { 9 h ' I / ! { { : i Y ( ] @.( ' ^ ' V , L / ' ] a.d.x.:.3.i...e 2 p + t ^ L ) ) ] ' R ` 5 h  .+.=.v > | =.U.[ 0 0 ",
"r 6 - & - l Y K * K _ R ! ) G & 9 ) Y Y ^ ) ' ) _ w 1 T W ' ' s.<.x.z.d.x.W @ D H.S . d ) R U ! ! ~ V & N { { { 7 v m.m.c.V * q ",
"e.#.) L z 4 % - - 7 C K B z ; 6 8 i U U ! ) U L 6 5 : F / ( ) ' 3.x.x.;.x.g 6 B.V.V.B O y L U S l q & 1 N { / S * R  ._ ' < y ' ",
"7.B.z.7.D.+.^ h 5 6 > @ & 4 q 4 6 O @ 1 p d 8   = q < y R U =._ X.#.] X.' = T L.X.2.I.k & , 4 & # 5 p 4 h ! I q r { / ' l 3 { ) ",
"g.1.y.V.c.9.D.m.H = r d R } X.} W L k 1 @ # < F [ 2.Y , J ^ T ' ` ] ' 1.l 8 Z.1.B.y.7.) , w 8 L L q 4 y 3 : = . 9 j j h % G { } ",
"y.7.7.3.=.Z. .S.R , q R } { b.b.s.g.B.X.L 4 i z.B.r.A.6 q W R W ^ ^ ] E < J m.2.y.2.g.^ y , I i.b.*.c 6 6 d h p 7 - & 4 y ) { { ",
"X.z.7.7.d.2.0.c.k @ C ' ( } B.*.0.y.7.z.H.A > ' 1.' V.H @ s P W ! T ( f 4 ' 2.y.m.1.b.G # m z.B.2.D.R = Z S.K.e.9.I 9 4 B } ) ' ",
"o.;.3.z.-.-.Z.W 2 > T W ' ' g.0.B.X.i.i.2.2.< C o.( / k > < * 0 V P G % N ' +.1.*.n.} q 9 X.m.y.d.L.b < =.x.r.=.u.S.l , J [ ] ( ",
"] X.;.;.x.d.=.b , 2 K R ^ [ o.7.2.B.2.=.L.R , e U C q , d W P k % - = 5 Y {  .A.e.e.K = L c.1.0.:.<.0 d x.-.=.t.0.c.f 5 W R ` ] ",
"` W @.[ ..d.R , 2 @ n W P / [ [ =.=.2.m.R < 1 4 = @ = 6 F i.x.Z.| y 7 q R ' ^ +.} { > p o.c.m.c.:.E $ H Z.>.m.r.1.B.d 0 W R ( ( ",
"] [ ] ` _ _ k = R k 2 ~ T R ^ ( ` ' [ v # = i k R R k # d ' =.i.c.y.m = d ' } / { c - c | '  .| @.d , W >.-.m.=.0.1.e s ` U T W ",
"! ` ( ' } S @ U L.=.2 v ^ J T _ ' J 6 # y J ] B.J.J.r.q @ G | ' =.Z.^ 5 0 d / ' L 4 6 l  ._ | { T < r _ / | =.=._ _ 7 h ) I T I ",
"R ! ] } R # V G.=.Z.U , U ~ ^ J s * q J =.Z.Z.x.@.X.B.R @ 5 ^ _ _ ~ e , < * q C 3 & - > v Z v h 4 , n ' | | { ~ I v - = m R ^ ! ",
"G U P K > t m.c.Z.=.N.0 5 m e = , D _ r.N.=.d.-.7.V.Z.' 5 2 y D d = 0 m R v = = t K I > - - % - 5 7 z K V z y > % @ 5 > * 3 7 B ",
"& = : ; 3 / S.2.=.N.i.V , = = a R _ ' r.=.i.r.i.z.y. ./ 5 0 = , e J ..m.i.z.m & L Y.K > D / ^ R K t - 5 % * 5 q h v l z 7 5 5 % ",
"Q G k > b ' 1.g.x.[ =.J 3 a 2 P Y ! [ @.7.z.y.y.u.{ { z & 9 j ( i.x.x.<.i.-.=.e 3 u 3 I D.m.g.V.H.] 4 9 F ^ X.=.8.Z.-.L.n 2 q F ",
"S.G.Z.e l ^ 1.1.[ ' / k 5 5 > n ^ E ` ] >.[ [ o./ { I - t Y *.s.7.7.>.d.x.8.Z.R > 5 K +.B.7.d.s.7.b.w d #.d.3.x.>.7.=.N.F , k ..",
"| y.B.G 6 ^ ` ' / { v X 6 v 0 @ S ! ^ ` W ' ' ' { / r - ! | #.*.d.d.<.d.x.=.N.=.u 3 Z { b.7.7.7.g.#.e l @.:.7.#.>.x.x.L.v @ C =.",
"| [ X.! 1 S ( ' ` l + k _ | _ 2 & E E ` [ [ ) )  .h @ l { { #.n.>.d.7.d.i.i.=.=.z * N { ^ S.B.*.b.b.w m [ ' d.s.i.-.>.-.s , W ' ",
"C F D k < s R W e O H x.-.-.Z.` = 8 ! ! ^ ) ) } N > 4 S E } } #.s.B.7.0.N.m.c. .r 5 7 / ' ' 0.y.*.| 9 A ] { @.a.y.g.;.X.0 2 v C ",
"> > @ # > 2 d 6 = R Z.-.x.x.>.Z.Y O p ! Y ! #.S > 4 7 Q ! ) ) #.g.g.0.0.t.N.=.Q > 7 > N ' ' ' *.*.) 8 B ) ) ) ) ) ' ..I 2 q * * ",
"^ ^ { R C < > 1 F B.7.7.<.Z.>.d.v.m O c ^ Y S : t t - Y Y E ) ] o.] X.*. .=. .v % ~ B 7 ! | / ) ) { ; h ( Y ] ) ' ( ) < , d J ~ ",
"N.N.x.x.L.H = w R 7.d.z.<.>.x.<.} } f + N K : 4 : : o 7 U ( ) ) ) ( { | / _ / 3 l +.{ 6 z ! ! Q L t - ; x Y E ( ( / q @ B +.r.m.",
"=.N.t.t.-.=.0 , Y ' n.#.V.<.@.` { ^ | 3 % - 3 4 J ( m 6 + w U E ( ) ( ] ! X.c & ^ ) { K - u 7 - ; 1 f p = = w c C q = r Y #.a.a.",
"N.=.-.d.Z.Z.M * L ^ } #.] ] [ ` ( } { L : 7 < ) H.H.H.a.U 8 + t c U Y ! ' A : r K { | | y 5 - n Y } *.n.*.L w = & < 4 x ) %.#.g.",
"d.-.d.7.=.i._ = B Q ! ' ` ` ( ` ' ' ^ Q t & I S.:.s.:.z.V.V.c : 1 1 8 w t < 6 6 = 7 l Y n - v ..#.H.e.*.n.S.n.' l 4 4 S ' *.b.7.",
"d.d.d.d.i.i.=.q t ! ! ! ( ] ( ] ' ( / Q 4 h } { s.g.:.g.*.V.) 9 8 e i y i 1 4 B Q C r > 3 < n _ s.*.*.S.s.*.S.S.^ = w ! ( } B.*.",
"g.g.:.7.Z.d.=.n + K / Q E ^ ^ ^ ! Q Q c & c ) { %.g.s.:.*.b./ * c *.7.b.P.H ; R | v.A.' m > a | #.s.d.:.s.s.#.n.Y O b W W ` @.&.",
">.g.:.s.x.=.| U % y c c m f y 9 4 : : & 4 4 Y ! ' [ [ >.7.c.z 3 @.*.H.7.*.7.; F { *.1.y.U.n > T ' @.z.7.5.s.n.J.( # U Y ^ ] ( @.",
"[ <.d.z.*.o.[ P 9 > & & & & 3 8 r p j B t & 9 Q E ` ` ] ) ^ : l V.s.s.d.7.g.y b ] ) V.7.2.N.y e ` ` %.z.5.#.@.#.U $ U Y E ` ( ` ",
"W W o.7.' _ _ v & h K Y ! ) { #.v.v.v.S.#.c & y W T ^ ] ' n % Y #.s.7.d.7.b.x i ' ) } o.2.x.{ = g ) [ ( ( ] ] ` A 8 Y Y U ` ] ] ",
"@.W @.W ' ! E : 4 / #.e.*.B.s.g.-.-.N.=.i.i.V X k W T ~ R 3 7 / ] #.*.s.s.} U 9 ! E ' ) ] ] @.F @ m ' ' ' / / I t - Q Y E Y ) ] ",
"W <.[ [ ) ) h + Y O.e.e.a.a.d.@.x.N.>.x.=.x.[ v * v ~ _ u = V { ) ] s.} ) #.! & G ( W ) ` E W A < , a B v a 7 3 3 3 B ! Q Y Y Q ",
"T W W W ( S % l / / { *.:.@.g.A.x.-.-.x.[ [ ' I # = a v < 9 Z / ] ] ) ] } ^ Q 7 1 w e i w 8 1 ; 2 r < = = < > < 9 4 : j U ^ E Q ",
"W W W W Y & - I I ) { ) ] @.[ @.-.-.[ ` W ' T , 2 a 5 # r 5 z ^ W ` } ) ) ) ! 7 6 8 8 1 , 8 w d 6 q 3 K 1.| _ P n y 9 = ; t c K ",
"8 8 i f ; ; r ! ! ! ! ) ` ` ( ) W _ _ _ _ n = 2 v =.=.D r 6 - 5 t w d i p y 7 > < C ^ } B.n.n.0._ # s { [ t.-.L.K.s.) j 4 4 & : ",
"U M x 9 9 9 4 < h B Y ! ^ ' @.` [ _ _ P q + 2 0 R =.=.L.L.a 5 7 ; 8 ; i G l 7 y 8 C #.' X.#.n.0.L.C 2 ' _ =.Z.=.9.n.K.) O p Y Y ",
"[ <.P.A.n.#.t 4 4 - : 9 t i m J J K s @ < e 2 = R ^ ^ K v > > 5 3 r 6 G D.Y.I > 9 y ! { { c.n.0.r.i.5 b ^ _ =.=.e.9.*.R & B *.' ",
"W W ( ] } *.Z < r l 4 4 i A f ; 2 = > v ^ i./ 2 , 0 2 , * u k d t : & c { 9.t 4 3 = p K ) ) ' } ..2.F 0 _ W ' _ ' { ' c & c ! ! ",
"9 9 8 t r r 9 - S G.! 7 y v.Y < r K =.m.D.u.L.^ = y 5 y ' B.g.B.c./ < q { V a u.^ 5 > 5 q n R ^ _ _ [ 2 C ~ _ _ ! Z t : 9 < 8 9 ",
"! ! S p 9 3 7 p +.c.K.{ 9 9 3 j / =.=.c.=.c.=.t.l 2 2 ! y.X.A.7.S.=.t 3 r a =.=.Z._ 6 5 d u 6 u F W ' k 2 U G l 8 4 < w ! } ' ' ",
"S.K.D.K.{ 9 > I u.c.9.m.} 9 : S _ | =.=.D.N.=.=.v @ L B.B.y.;.y.2.+.z 5 2 R m.r.Z.U.P = D c.Q d 2 > d 0 = > 2 5 ; 9 9 Y +.s.s.5.",
"s.#.9.v.v.4 4 / / +.c.u.5.Y 8 t ~ _ | u.=.=.=./ , d c.y.y.y.7.7.=.c.h - V =.=.c.-.=.L.M 5 ' 2.D.T q 0 6 d J / r.x = x ^ #.s.s.n.",
"s.v.D.S.C : 4 Z { ) #.n.S.{ t & a Q _ _ _ | [ l < _ -.z.:.d.d.7.b.b.d , W ^ 7.i.x.-.i.-.0 Z ' _ L.~ > a [ ..m.U.b $ T ` { #.*.a.",
"s.9.} { 8 9 7 : I { ) 5.{ L 3 h 7 7 V /  .~ R < H =.7.z.;.z.:.d.0.#.t s / ' ` ;.x.x.=.N.y 7 / ~ v 6 5 k ! ' [ t.g 0 E W ) #.7.#.",
") ) { j & 8 c 4 4 Y ) ) Y 8 3 : 5 5 * 7 V P q w ' =.i.z.d.;.s.*.*.) 8 e R ` ` [ =.N.d.i.k > 0 = @ 5 7 > 4 l F W 8 q ` T W W W ( ",
"Y ! c & r Q s.#.: r Y Y 9 : p U | | R 7 @ 5 * P _ ..7.7.s.z.:.a.@.E e = b W ^ ` ' ' ' [ l 5 < k L P D D i = 2 1 1 , 1 e b M U U "
};
